<?xml version="1.0" standalone="no"?>
<!DOCTYPE svg PUBLIC "-//W3C//DTD SVG 20010904//EN"
 "http://www.w3.org/TR/2001/REC-SVG-20010904/DTD/svg10.dtd">
<svg version="1.0" xmlns="http://www.w3.org/2000/svg"
 width="200.000000pt" height="183.000000pt" viewBox="0 0 200.000000 183.000000"
 preserveAspectRatio="xMidYMid meet" >

<g class="troll" transform="translate(0.000000,183.000000) scale(0.100000,-0.100000)"
fill="#000000" stroke="none">

<path d="M628 1751 c-20 -4 -45 -14 -54 -22 -24 -20 -44 -72 -44 -117 0 -37
-2 -39 -42 -52 -59 -17 -155 -66 -201 -102 -28 -22 -37 -37 -37 -59 0 -48 -26
-97 -85 -160 -92 -100 -94 -152 -14 -331 52 -114 59 -189 35 -383 -24 -196
-22 -234 14 -283 36 -50 91 -88 157 -108 77 -25 245 -19 388 11 66 14 156 33
200 41 57 11 120 35 220 84 77 37 183 88 235 113 198 95 291 173 345 292 24
52 56 98 106 152 82 89 99 122 99 195 -1 76 -26 123 -117 210 -66 62 -85 89
-108 145 -16 37 -38 82 -48 98 -54 81 -138 145 -192 145 -24 0 -25 2 -25 59 0
44 -4 60 -16 65 -8 3 -152 6 -320 5 -287 -1 -305 -2 -314 -19 -10 -19 -11 -19
-43 0 -40 23 -90 31 -139 21z m79 -27 c47 -9 72 -35 79 -81 l7 -43 -52 0 c-50
0 -51 1 -51 30 0 20 -5 30 -15 30 -10 0 -15 -10 -15 -30 0 -24 10 -37 55 -70
67 -49 75 -64 75 -133 0 -76 -20 -99 -92 -105 -75 -6 -114 14 -128 69 -17 63
-12 72 40 73 l45 1 5 -39 c6 -46 26 -59 36 -22 8 34 -5 54 -68 101 -61 47 -78
89 -62 153 13 54 69 81 141 66z m233 -199 c0 -149 -3 -195 -12 -196 -44 -4
-88 -4 -88 1 -1 14 -2 357 -1 373 1 14 10 17 51 17 l50 0 0 -195z m151 128 c0
-38 2 -63 4 -58 2 6 11 36 20 68 l16 57 49 0 49 0 -30 -89 -30 -90 30 -102
c17 -56 31 -105 31 -108 0 -4 -23 -7 -50 -7 -49 -1 -50 0 -59 35 -29 111 -29
111 -30 39 -1 -38 -4 -68 -8 -69 -5 -1 -28 -2 -53 -3 l-45 -1 -3 198 -2 197
55 0 55 0 1 -67z m339 27 c0 -39 -1 -40 -36 -40 -35 0 -35 -1 -32 -37 3 -35 6
-38 33 -38 27 -1 30 -4 33 -38 3 -36 3 -37 -32 -37 -36 0 -36 0 -36 -45 l0
-45 40 0 c39 0 40 -1 40 -34 0 -45 -18 -49 -162 -37 -17 1 -18 17 -18 196 l0
195 85 0 85 0 0 -40z m-204 -117 c-10 -10 -19 5 -10 18 6 11 8 11 12 0 2 -7 1
-15 -2 -18z m300 1 c48 -23 88 -72 139 -172 24 -48 54 -102 66 -119 l21 -33
-54 -1 -53 -2 60 -7 c68 -8 108 -26 147 -67 81 -85 76 -196 -13 -285 -27 -27
-49 -51 -49 -55 0 -3 -11 -13 -23 -24 -13 -10 -34 -45 -45 -77 -50 -136 -116
-188 -454 -357 -207 -103 -258 -125 -294 -125 -25 0 -76 -11 -114 -24 -163
-57 -409 -72 -523 -31 -62 22 -114 73 -123 122 -4 20 -1 95 7 167 8 72 14 183
14 246 0 109 -2 120 -30 176 l-30 60 30 -14 c17 -7 38 -17 47 -23 22 -11 28
-11 28 0 0 4 -21 16 -46 26 -52 20 -64 41 -64 116 0 44 5 55 38 90 27 29 52
45 87 54 l50 14 -40 0 c-89 2 -165 -100 -150 -200 4 -26 3 -30 -4 -14 -13 26
-13 97 -2 128 5 14 31 49 57 78 51 58 74 103 74 148 0 51 105 131 216 164 48
14 52 14 67 -4 16 -18 15 -19 -22 -19 -25 0 -47 -7 -62 -21 l-24 -21 27 16
c43 26 55 21 50 -20 -4 -29 -10 -38 -33 -46 -26 -9 -49 -34 -49 -53 0 -4 16 7
35 24 42 37 55 39 55 8 0 -55 62 -98 143 -99 29 0 55 -5 59 -11 5 -8 8 -7 8 3
0 8 11 23 25 33 22 16 25 16 33 0 8 -13 27 -16 116 -16 58 -1 106 -2 106 -3 0
-1 -16 -18 -35 -37 -39 -39 -43 -58 -19 -81 35 -36 49 -37 115 -8 59 25 75 27
196 27 72 0 134 3 138 7 9 8 -33 78 -46 78 -6 0 -7 4 -4 10 3 5 20 8 38 6 46
-6 57 8 57 70 l0 54 28 -16 c25 -15 26 -15 7 1 -11 9 -31 25 -45 35 -21 15
-22 20 -11 34 8 9 12 33 9 61 -4 52 9 57 68 29z m-721 -3 c10 -17 -11 -21 -31
-6 -18 14 -18 14 3 15 12 0 24 -4 28 -9z m425 -36 c0 -28 -15 -34 -24 -9 -10
25 -7 34 9 34 9 0 15 -9 15 -25z m196 -80 c18 -14 18 -14 -8 -15 -18 0 -28 5
-28 15 0 19 11 19 36 0z m-262 -177 c9 -35 8 -38 -14 -38 -12 0 -38 -9 -60
-20 -50 -25 -70 -25 -70 0 0 20 18 34 85 62 52 22 52 22 59 -4z m200 -24 c9
-3 16 -10 16 -14 0 -10 -49 0 -56 11 -6 10 17 12 40 3z"/>
<path d="M504 1270 c-12 -5 -29 -19 -38 -31 -22 -32 -9 -38 107 -50 50 -5 107
-15 125 -20 29 -9 32 -14 32 -47 -1 -34 -7 -42 -74 -94 -41 -32 -93 -69 -117
-83 -54 -30 -44 -33 13 -4 37 19 43 19 53 6 8 -11 15 -13 29 -5 15 8 27 1 68
-41 27 -28 57 -51 67 -51 20 0 51 30 51 48 0 15 -23 15 -37 1 -24 -24 -113 66
-96 96 4 7 24 24 43 37 31 21 35 30 38 71 3 41 7 49 33 62 38 20 39 48 1 44
-17 -2 -40 6 -59 19 -65 46 -180 66 -239 42z m79 -37 c-13 -2 -33 -2 -45 0
-13 2 -3 4 22 4 25 0 35 -2 23 -4z"/>
<path d="M1479 1227 c18 -11 20 -16 10 -20 -11 -4 -11 -6 1 -6 17 -1 47 16 40
22 -3 3 -21 8 -40 11 -34 7 -34 6 -11 -7z"/>
<path d="M395 1220 c27 -12 43 -12 25 0 -8 5 -22 9 -30 9 -10 0 -8 -3 5 -9z"/>
<path d="M1670 1213 c76 -7 101 -15 132 -41 29 -23 31 -24 13 -3 -28 33 -76
51 -132 49 -38 -1 -41 -2 -13 -5z"/>
<path d="M1570 1180 c-19 -4 -60 -19 -90 -35 -78 -40 -135 -39 -195 3 -48 33
-65 39 -65 21 0 -45 76 -89 155 -89 64 0 151 23 187 50 34 25 71 25 124 1 33
-15 45 -28 58 -63 15 -39 15 -47 1 -87 -27 -78 -13 -97 26 -35 75 121 -47 263
-201 234z"/>
<path d="M253 1155 c-28 -12 -33 -19 -33 -49 0 -19 -3 -42 -7 -52 -4 -12 -3
-15 5 -10 7 4 12 22 12 41 0 34 5 41 45 70 25 18 19 18 -22 0z"/>
<path d="M303 1130 c-12 -5 -26 -18 -32 -28 -10 -18 -6 -19 67 -18 71 1 78 -1
87 -21 14 -32 95 -33 126 -2 27 27 12 48 -24 32 -20 -9 -33 -7 -73 13 -57 27
-120 38 -151 24z"/>
<path d="M1584 1092 c-5 -24 -20 -33 -132 -82 -148 -63 -320 -120 -453 -151
-74 -18 -126 -22 -244 -23 -164 -1 -206 9 -307 73 -44 28 -45 31 -52 90 -5 43
-11 61 -21 61 -8 0 -15 -8 -15 -19 0 -10 -12 -45 -28 -77 -25 -55 -27 -68 -26
-179 0 -130 15 -193 60 -252 44 -59 166 -83 420 -83 258 0 378 26 527 116 87
53 159 124 229 226 32 47 66 92 74 98 8 7 14 24 14 39 0 37 17 50 55 44 51 -8
48 9 -8 48 -36 24 -54 44 -61 67 -11 39 -25 41 -32 4z m16 -91 c0 -49 -73
-112 -148 -127 l-33 -7 3 38 c3 36 7 40 76 77 82 43 102 46 102 19z m-220 -91
c0 -21 -24 -61 -46 -75 -13 -8 -57 -26 -98 -39 l-74 -23 -6 21 c-16 58 -12 61
97 94 113 34 127 36 127 22z m-968 -105 c-4 -22 -12 -39 -17 -38 -18 4 -17 51
2 85 15 28 18 30 21 13 1 -11 -1 -38 -6 -60z m1078 -15 c-38 -59 -67 -80 -77
-54 -12 31 11 68 56 91 25 13 47 21 49 18 3 -2 -10 -27 -28 -55z m-977 33 c20
-6 20 -8 4 -53 -9 -28 -17 -34 -34 -32 -17 2 -24 12 -29 38 -8 45 1 68 24 59
9 -4 25 -10 35 -12z m601 -35 l7 -36 -70 -16 c-39 -9 -86 -16 -105 -16 -35 0
-36 1 -36 39 l0 40 58 11 c31 7 73 15 92 19 42 9 46 7 54 -41z m-448 2 c32 0
34 -2 34 -35 0 -35 0 -35 -42 -34 -74 2 -103 12 -100 34 6 43 11 48 43 41 18
-3 47 -6 65 -6z m204 -30 l0 -40 -65 0 c-68 0 -71 2 -59 47 5 17 15 23 48 26
22 2 49 4 59 5 14 2 17 -6 17 -38z m500 -13 c0 -12 7 -32 15 -44 14 -20 12
-23 -72 -77 l-87 -57 -24 46 c-33 65 -27 83 33 104 28 9 64 24 80 33 42 22 55
21 55 -5z m-230 -82 c0 -14 9 -43 20 -65 11 -22 20 -41 20 -44 0 -8 -122 -44
-155 -46 -75 -5 -75 -6 -75 60 0 40 4 62 13 64 6 2 46 15 87 28 41 14 78 26
83 27 4 0 7 -10 7 -24z m-740 -84 c0 -18 -4 -14 -24 29 l-17 35 20 -25 c11
-14 21 -31 21 -39z m70 7 c24 -40 26 -69 5 -63 -50 16 -50 16 -36 24 11 7 11
16 3 40 -15 41 3 40 28 -1z m442 -28 c3 -69 2 -70 -77 -70 -58 0 -58 0 -70 72
l-7 36 64 10 c34 5 68 10 75 11 7 1 12 -21 15 -59z m-338 28 c9 -18 27 -81 23
-84 -10 -10 -57 17 -57 33 0 10 -7 27 -15 37 -8 11 -15 23 -15 27 0 7 60 -6
64 -13z m133 -10 c11 -13 23 -38 26 -55 6 -32 5 -33 -26 -33 -17 0 -36 4 -42
8 -11 8 -45 77 -45 92 0 20 66 10 87 -12z"/>
<path d="M990 1030 c-21 -13 -3 -28 40 -32 27 -2 36 -8 38 -24 2 -11 -4 -27
-13 -34 -23 -19 -19 -42 7 -38 25 3 53 67 43 98 -10 32 -82 51 -115 30z"/>
<path d="M1115 1030 c-16 -26 17 -40 89 -38 l71 2 -75 5 c-63 5 -75 9 -74 24
2 19 -2 22 -11 7z"/>
<path d="M1842 1000 c0 -19 2 -27 5 -17 2 9 2 25 0 35 -3 9 -5 1 -5 -18z"/>
<path d="M222 1008 c2 -6 15 -18 29 -27 l24 -15 -24 27 c-26 29 -35 34 -29 15z"/>
<path d="M893 963 c-7 -2 -13 -11 -13 -18 0 -9 19 -14 63 -17 67 -4 83 2 74
26 -5 12 -20 16 -59 15 -29 0 -59 -3 -65 -6z"/>
<path d="M1830 951 c0 -7 -10 -27 -22 -43 l-21 -30 21 11 c22 12 40 56 28 68
-3 4 -6 1 -6 -6z"/>
<path d="M1510 543 c-8 -3 -45 -21 -82 -39 -110 -55 -256 -113 -363 -145 -60
-17 -82 -27 -55 -23 109 15 475 158 525 205 10 10 0 11 -25 2z"/>
<path d="M1360 526 c-19 -7 -66 -29 -105 -48 -125 -63 -198 -90 -295 -108 -52
-10 -83 -19 -68 -19 89 -3 222 40 423 139 97 47 116 62 45 36z"/>
<path d="M400 430 c0 -38 98 -81 177 -79 35 1 34 2 -15 10 -55 9 -119 37 -146
64 -9 9 -16 11 -16 5z"/>
<path d="M302 405 c0 -16 2 -22 5 -12 2 9 2 23 0 30 -3 6 -5 -1 -5 -18z"/>
<path d="M703 403 c20 -2 54 -2 75 0 20 2 3 4 -38 4 -41 0 -58 -2 -37 -4z"/>
<path d="M338 341 c42 -36 94 -51 168 -50 l59 2 -69 8 c-43 5 -92 19 -130 38
l-61 30 33 -28z"/>
<path d="M928 323 c6 -2 18 -2 25 0 6 3 1 5 -13 5 -14 0 -19 -2 -12 -5z"/>
<path d="M873 313 c9 -2 23 -2 30 0 6 3 -1 5 -18 5 -16 0 -22 -2 -12 -5z"/>
<path d="M803 303 c9 -2 25 -2 35 0 9 3 1 5 -18 5 -19 0 -27 -2 -17 -5z"/>
<path d="M693 293 c15 -2 37 -2 50 0 12 2 0 4 -28 4 -27 0 -38 -2 -22 -4z"/>
</g>
</svg>
